<svg xmlns="http://www.w3.org/2000/svg" xmlns:xlink="http://www.w3.org/1999/xlink" width="45.911" height="44.574" viewBox="0 0 45.911 44.574">
  <defs>
    <clipPath id="clip-path">
      <rect width="45.911" height="44.574" fill="none"/>
    </clipPath>
  </defs>
  <g id="Cart" clip-path="url(#clip-path)">
    <path id="Cart-2" data-name="Cart" d="M117.739,85.735H84.574l-1.91-4.49a1.569,1.569,0,0,0-1.084-.913l-6.153-1.448a1.569,1.569,0,0,0-.718,3.054L80.088,83.2l13.771,32.371a5.187,5.187,0,1,0,9.292.522H108.8a5.188,5.188,0,1,0,4.776-3.162l-17.42.024-2.149-5.051H117.74a1.569,1.569,0,0,0,1.569-1.569V87.3A1.569,1.569,0,0,0,117.739,85.735Zm-4.161,30.339a2.05,2.05,0,1,1-2.05,2.05A2.05,2.05,0,0,1,113.579,116.073Zm-15.2,0a2.05,2.05,0,1,1-2.05,2.05A2.05,2.05,0,0,1,98.383,116.073Zm17.788-20.821h-10.4a1.569,1.569,0,0,0,0,3.138h10.4v6.38h-23.5l-6.763-15.9h30.262Z" transform="translate(-73.447 -78.79)" fill="#522d07"/>
  </g>
</svg>
