<svg xmlns="http://www.w3.org/2000/svg" xmlns:xlink="http://www.w3.org/1999/xlink" width="41.142" height="42.304" viewBox="0 0 41.142 42.304">
  <defs>
    <clipPath id="clip-path">
      <rect width="41.142" height="42.304" fill="none"/>
    </clipPath>
  </defs>
  <g id="legal" clip-path="url(#clip-path)">
    <path id="Path_63" data-name="Path 63" d="M37.762,22.43V3.407H9.37V38.9H22.43a1.7,1.7,0,0,1,0,3.407H7.666a1.708,1.708,0,0,1-1.7-1.7V1.7A1.709,1.709,0,0,1,7.666,0h31.8a1.708,1.708,0,0,1,1.7,1.7V22.43a1.7,1.7,0,1,1-3.407,0Zm8.773,4.145a1.708,1.708,0,0,0-2.413.142L34.781,37.108,30.1,32.594a1.707,1.707,0,0,0-2.357,2.47L33.7,40.8a1.674,1.674,0,0,0,1.192.483h.057a1.7,1.7,0,0,0,1.192-.568l10.505-11.7A1.713,1.713,0,0,0,46.535,26.575ZM31.516,9.937H16.184a1.7,1.7,0,0,0,0,3.407H31.516a1.7,1.7,0,0,0,0-3.407Zm1.7,11.073a1.708,1.708,0,0,0-1.7-1.7H16.184a1.7,1.7,0,1,0,0,3.407H31.516A1.709,1.709,0,0,0,33.219,21.01ZM16.184,28.392a1.7,1.7,0,0,0,0,3.407h4.543a1.7,1.7,0,0,0,0-3.407Z" transform="translate(-5.963)" fill="#522d07"/>
  </g>
</svg>
