<svg xmlns="http://www.w3.org/2000/svg" xmlns:xlink="http://www.w3.org/1999/xlink" width="40.325" height="55.204" viewBox="0 0 40.325 55.204">
  <defs>
    <clipPath id="clip-path">
      <rect width="40.325" height="55.204" fill="none"/>
    </clipPath>
  </defs>
  <g id="notifications" clip-path="url(#clip-path)">
    <path id="notifications-2" data-name="notifications" d="M35.973,36.875h-.39L33.678,20.235A13.1,13.1,0,0,0,25.39,9.505a5.93,5.93,0,1,0-9.455,0,13.1,13.1,0,0,0-8.287,10.73L5.742,36.875h-.39a4.852,4.852,0,1,0,0,9.7H15.811v3.774a4.852,4.852,0,1,0,9.7,0V46.579H35.973a4.852,4.852,0,1,0,0-9.7ZM20.662,3.235a2.7,2.7,0,1,1-2.7,2.7A2.7,2.7,0,0,1,20.662,3.235ZM10.861,20.6a9.865,9.865,0,0,1,19.6,0l1.863,16.271H9ZM22.28,50.352a1.617,1.617,0,1,1-3.235,0V46.579H22.28Zm13.693-7.008H5.352a1.617,1.617,0,1,1,0-3.235H35.973a1.617,1.617,0,1,1,0,3.235Zm0,0" transform="translate(-0.5)" fill="#522d07"/>
  </g>
</svg>
