<svg xmlns="http://www.w3.org/2000/svg" width="54.848" height="47.889" viewBox="0 0 54.848 47.889">
  <g id="shop" transform="translate(0 -31.05)">
    <g id="Group_1" data-name="Group 1" transform="translate(0 31.05)">
      <path id="Path_1" data-name="Path 1" d="M259.351,263.75H251.9a3.7,3.7,0,0,0-3.7,3.7v5.716a3.7,3.7,0,0,0,3.7,3.7h7.453a3.7,3.7,0,0,0,3.7-3.7v-5.716A3.7,3.7,0,0,0,259.351,263.75Zm1.009,9.414a1.012,1.012,0,0,1-1.009,1.009H251.9a1.012,1.012,0,0,1-1.009-1.009v-5.716a1.012,1.012,0,0,1,1.009-1.009h7.453a1.012,1.012,0,0,1,1.009,1.009Z" transform="translate(-220.384 -237.671)" fill="#ff992f"/>
      <path id="Path_2" data-name="Path 2" d="M54.848,46.74a1.248,1.248,0,0,0-.179-.661L46.51,31.734a1.352,1.352,0,0,0-1.166-.684H9.493a1.329,1.329,0,0,0-1.166.684L.179,46.079A1.36,1.36,0,0,0,0,46.74a7.867,7.867,0,0,0,4.707,7.2V77.594a1.349,1.349,0,0,0,1.345,1.345H48.785a1.349,1.349,0,0,0,1.345-1.345V54.1a.592.592,0,0,0-.011-.146A7.889,7.889,0,0,0,54.848,46.74ZM10.277,33.751H44.56l6.377,11.218H3.911Zm28.758,13.9a5.169,5.169,0,0,1-10.176,0ZM26,47.648a5.176,5.176,0,0,1-10.187,0Zm-23.221,0H12.967a5.176,5.176,0,0,1-10.187,0Zm19.814,28.6H14.861V61.736a1.916,1.916,0,0,1,1.916-1.916h3.911a1.916,1.916,0,0,1,1.916,1.916V76.249Zm24.847,0H25.284V61.736a4.613,4.613,0,0,0-4.606-4.606H16.766a4.613,4.613,0,0,0-4.606,4.606V76.26H7.4V54.6c.157.011.314.011.471.011a7.857,7.857,0,0,0,6.523-3.474,7.86,7.86,0,0,0,13.045,0,7.839,7.839,0,0,0,13.023,0,7.857,7.857,0,0,0,6.523,3.474c.157,0,.3-.011.459-.011V76.249Zm-.459-24.331a5.166,5.166,0,0,1-5.088-4.259H52.08A5.2,5.2,0,0,1,46.981,51.918Z" transform="translate(0 -31.05)" fill="#ff992f"/>
    </g>
  </g>
</svg>
